<?xml version="1.0" standalone="no"?>
<!DOCTYPE svg PUBLIC "-//W3C//DTD SVG 20010904//EN"
 "http://www.w3.org/TR/2001/REC-SVG-20010904/DTD/svg10.dtd">
<svg version="1.0" xmlns="http://www.w3.org/2000/svg"
 width="768.000000pt" height="768.000000pt" viewBox="0 0 768.000000 768.000000"
 preserveAspectRatio="xMidYMid meet">
<metadata>
Created by potrace 1.11, written by Peter Selinger 2001-2013
</metadata>
<g transform="translate(0.000000,768.000000) scale(0.100000,-0.100000)"
fill="#000000" stroke="none">
<path d="M6177 5893 c-4 -3 -7 -100 -7 -214 0 -208 0 -209 -22 -213 -123 -24
-188 -45 -277 -88 -88 -42 -116 -62 -180 -126 -88 -89 -140 -173 -178 -287
-26 -75 -27 -91 -27 -260 0 -169 1 -185 27 -260 89 -268 302 -438 732 -585
430 -148 575 -284 575 -540 0 -277 -211 -451 -548 -450 -175 1 -299 45 -398
144 -91 91 -144 223 -144 359 l0 57 -182 0 -181 0 6 -102 c24 -408 268 -679
678 -754 l89 -17 0 -183 0 -184 145 0 145 0 0 185 0 184 38 6 c117 18 227 51
321 97 91 44 116 62 191 137 137 137 187 261 197 482 7 165 -11 260 -73 388
-52 106 -142 206 -253 280 -92 63 -265 142 -436 201 -394 136 -545 261 -575
477 -12 86 0 196 30 274 26 71 78 135 147 182 83 56 146 72 293 72 123 0 126
-1 201 -36 167 -80 266 -246 285 -481 l7 -78 179 0 179 0 -6 83 c-16 197 -44
307 -111 437 -55 106 -133 194 -229 259 -93 62 -163 89 -327 125 l-28 6 0 215
0 215 -138 0 c-76 0 -142 -3 -145 -7z"/>
<path d="M3675 5413 c-77 -199 -1075 -2814 -1075 -2818 0 -3 86 -4 191 -3
l191 3 132 365 132 365 599 0 598 0 135 -367 135 -368 190 0 c175 0 189 1 185
18 -4 12 -862 2254 -1061 2770 l-20 52 -162 0 c-146 0 -164 -2 -170 -17z m415
-1115 l238 -653 -238 -3 c-131 -1 -349 -1 -483 0 l-244 3 223 615 c268 738
255 702 261 697 2 -3 112 -299 243 -659z"/>
<path d="M97 4703 c-30 -131 -69 -354 -64 -360 7 -7 61 122 80 192 21 78 36
285 20 285 -5 0 -22 -53 -36 -117z"/>
<path d="M1420 4734 c-14 -2 -52 -9 -85 -15 -136 -24 -268 -94 -368 -195 l-54
-54 -7 47 c-3 25 -6 67 -6 92 0 96 10 91 -176 91 l-164 0 0 -1417 c0 -1416 0
-1417 21 -1460 l21 -43 159 0 159 0 0 505 0 505 68 -56 c83 -69 221 -137 327
-161 107 -24 312 -24 410 0 307 77 531 359 599 757 45 264 25 605 -50 835 -93
285 -297 490 -544 550 -64 16 -262 28 -310 19z m111 -314 c93 -17 189 -72 260
-148 112 -118 169 -264 191 -483 14 -139 1 -333 -32 -469 -69 -284 -271 -460
-526 -460 -193 0 -348 74 -454 218 l-50 67 0 496 0 495 31 49 c72 113 210 210
334 233 68 13 181 14 246 2z"/>
<path d="M7636 4287 c-12 -127 0 -618 16 -697 l14 -65 7 94 c14 192 4 507 -22
701 l-7 55 -8 -88z"/>
</g>
</svg>
